<svg width="100" height="91" viewBox="0 0 100 91" fill="none" xmlns="http://www.w3.org/2000/svg">
<path d="M23.6328 8.78906H8.78906C7.16973 8.78906 5.85938 10.0994 5.85938 11.7188C5.85938 13.3381 7.16973 14.6484 8.78906 14.6484H23.6328C25.2521 14.6484 26.5625 13.3381 26.5625 11.7188C26.5625 10.0994 25.2521 8.78906 23.6328 8.78906Z" fill="#159957"/>
<path d="M23.6328 32.2266H8.78906C7.16973 32.2266 5.85938 33.5369 5.85938 35.1562C5.85938 36.7756 7.16973 38.0859 8.78906 38.0859H23.6328C25.2521 38.0859 26.5625 36.7756 26.5625 35.1562C26.5625 33.5369 25.2521 32.2266 23.6328 32.2266Z" fill="#159957"/>
<path d="M17.7734 20.5078H2.92969C1.31035 20.5078 0 21.8182 0 23.4375C0 25.0568 1.31035 26.3672 2.92969 26.3672H17.7734C19.3928 26.3672 20.7031 25.0568 20.7031 23.4375C20.7031 21.8182 19.3928 20.5078 17.7734 20.5078Z" fill="#159957"/>
<path d="M94.1407 35.1569H76.3672V23.4381C76.3672 18.2924 70.0725 15.583 66.3633 19.2971L42.9276 42.7329C40.6387 45.0217 40.6387 48.7295 42.9276 51.0184L56.3629 64.4538L39.9979 80.8188C37.709 83.1077 37.709 86.8155 39.9979 89.1043C42.2866 91.393 45.9946 91.3932 48.2834 89.1043L68.7913 68.5965C71.0801 66.3077 71.0801 62.5998 68.7913 60.311L55.3559 46.8756L64.6485 37.583V41.0163C64.6485 44.252 67.2721 46.8756 70.5079 46.8756H94.1407C97.3764 46.8756 100 44.252 100 41.0163C100 37.7805 97.3764 35.1569 94.1407 35.1569Z" fill="#159957"/>
<path d="M54.7151 5.37962C52.3862 3.83177 49.2963 4.13802 47.3221 6.11204L31.2088 22.2253C28.92 24.5142 28.92 28.222 31.2088 30.5109C33.4977 32.7997 37.2057 32.7995 39.4946 30.5107L52.2118 17.7935L56.4957 20.8794L62.2196 15.1556C63.177 14.1982 64.3063 13.455 65.5413 12.8747L54.7151 5.37962Z" fill="#159957"/>
<path d="M38.7848 55.1605C37.3002 53.676 36.3092 51.8488 35.7868 49.873L4.84165 80.8182C2.55278 83.107 2.55278 86.8148 4.84165 89.1037C7.13032 91.3924 10.8383 91.3926 13.1272 89.1037L42.9276 59.3033L38.7848 55.1605Z" fill="#159957"/>
<path d="M79.2969 17.5781C84.1509 17.5781 88.0859 13.6431 88.0859 8.78906C88.0859 3.935 84.1509 0 79.2969 0C74.4428 0 70.5078 3.935 70.5078 8.78906C70.5078 13.6431 74.4428 17.5781 79.2969 17.5781Z" fill="#159957"/>
</svg>
