<svg width="100" height="100" viewBox="0 0 100 100" fill="none" xmlns="http://www.w3.org/2000/svg">
<path d="M69.5312 94.1406H65.9592L64.2502 87.3047H35.7496L34.0406 94.1406H30.4688C28.8508 94.1406 27.5391 95.4523 27.5391 97.0703C27.5391 98.6883 28.8508 100 30.4688 100H69.5312C71.1492 100 72.4609 98.6883 72.4609 97.0703C72.4609 95.4523 71.1492 94.1406 69.5312 94.1406Z" fill="#159957"/>
<path d="M0 69.7266V70.7031C0 76.6264 4.81895 81.4453 10.7422 81.4453H89.2578C95.1811 81.4453 100 76.6264 100 70.7031V69.7266H0Z" fill="#159957"/>
<path d="M89.2578 16.0156H78.3203V23.5541C78.3203 31.3967 75.8457 38.868 71.1643 45.1604C66.4824 51.4525 60.0373 55.9695 52.5254 58.223C51.7055 58.4689 50.8559 58.5938 50 58.5938C49.1439 58.5938 48.2939 58.4689 47.474 58.2229C39.9627 55.9695 33.5174 51.4523 28.8357 45.1604C24.1541 38.8682 21.6797 31.3967 21.6797 23.5541V16.0156H10.7422C4.81895 16.0156 0 20.8346 0 26.7578V63.8672H100V26.7578C100 20.8346 95.1811 16.0156 89.2578 16.0156Z" fill="#159957"/>
<path d="M69.5312 7.8125C65.8293 7.8125 62.501 5.75547 60.8453 2.44453L60.433 1.61973C59.9367 0.626953 58.9223 0 57.8125 0H42.1875C41.0777 0 40.0633 0.626953 39.567 1.61953L39.1547 2.44414C37.4992 5.75547 34.1709 7.8125 30.4688 7.8125C28.8508 7.8125 27.5391 9.12422 27.5391 10.7422V23.5541C27.5391 30.1271 29.6131 36.3891 33.5367 41.6627C37.4604 46.9361 42.8623 50.7221 49.1582 52.6107C49.4328 52.6932 49.7164 52.7344 50 52.7344C50.2836 52.7344 50.5672 52.6932 50.842 52.6107C57.1377 50.7221 62.5396 46.9361 66.4633 41.6627C70.3869 36.3891 72.4609 30.1271 72.4609 23.5541V10.7422C72.4609 9.12422 71.1492 7.8125 69.5312 7.8125ZM60.358 22.9145L49.3094 33.9629C48.7373 34.535 47.9875 34.8211 47.2379 34.8211C46.4881 34.8211 45.7385 34.5352 45.1664 33.9629L39.6422 28.4387C38.498 27.2945 38.498 25.4396 39.6422 24.2955C40.7861 23.1514 42.6412 23.1514 43.7854 24.2955L47.2381 27.748L56.215 18.7713C57.3592 17.6271 59.2143 17.6271 60.3582 18.7713C61.5023 19.9154 61.5023 21.7705 60.358 22.9145Z" fill="#159957"/>
</svg>
