<svg width="100" height="100" viewBox="0 0 100 100" fill="none" xmlns="http://www.w3.org/2000/svg">
<path d="M56.0547 46.9961H38.0859C36.4666 46.9961 35.1562 48.3064 35.1562 49.9258V88.2069H58.9842V49.9258C58.9844 48.3064 57.674 46.9961 56.0547 46.9961Z" fill="#159957"/>
<path d="M99.4701 30.668L78.9625 1.17583C77.8638 -0.391944 75.2603 -0.391944 74.1617 1.17583L53.6539 30.668C53.0273 31.5633 52.95 32.7307 53.4564 33.7006C53.9599 34.6706 54.9613 35.277 56.0543 35.277H64.8433V88.2063H88.2807V35.2768H97.0697C98.1627 35.2768 99.1641 34.6704 99.6676 33.7005C100.174 32.7307 100.097 31.5635 99.4701 30.668Z" fill="#159957"/>
<path d="M26.367 64.5742H8.78906C7.16973 64.5742 5.85938 65.8846 5.85938 67.5039V88.2069H29.2967V67.5037C29.2967 65.8846 27.9863 64.5742 26.367 64.5742Z" fill="#159957"/>
<path d="M97.0698 94.0664C50.0116 94.0664 51.3389 94.0664 2.92969 94.0664C1.31035 94.0664 0 95.3768 0 96.9961C0 98.6154 1.31035 99.9258 2.92969 99.9258C49.2662 99.9258 2.82031 99.9258 97.0698 99.9258C98.6891 99.9258 99.9995 98.6154 99.9995 96.9961C99.9995 95.3768 98.6891 94.0664 97.0698 94.0664Z" fill="#159957"/>
</svg>
