<svg width="100" height="100" viewBox="0 0 100 100" fill="none" xmlns="http://www.w3.org/2000/svg">
<path d="M50 0C22.5371 0 0 22.5371 0 50C0 77.4629 22.5371 100 50 100C77.4629 100 100 77.4629 100 50C100 22.5371 77.4629 0 50 0ZM50 88.2812C29 88.2812 11.9141 71 11.9141 50C11.9141 29 29 11.7188 50 11.7188C71 11.7188 88.0859 29 88.0859 50C88.0859 71 71 88.2812 50 88.2812Z" fill="#159957"/>
<path d="M50 17.5781C32.2303 17.5781 17.7734 32.2303 17.7734 50C17.7734 67.7697 32.2303 82.4219 50 82.4219C67.7697 82.4219 82.2266 67.7697 82.2266 50C82.2266 32.2303 67.7697 17.5781 50 17.5781ZM69.6496 43.2822L46.2121 66.7197C45.6398 67.292 44.8902 67.5781 44.1408 67.5781C43.3914 67.5781 42.6416 67.292 42.0695 66.7197L30.3508 55.001C29.2061 53.8566 29.2061 52.0027 30.3506 50.8584C31.4949 49.7141 33.349 49.7141 34.4934 50.8584L44.1406 60.5057L65.5068 39.1395C66.6512 37.9951 68.5053 37.9951 69.6496 39.1395C70.7939 40.2838 70.7939 42.1379 69.6496 43.2822Z" fill="#159957"/>
</svg>
