<svg width="100" height="100" viewBox="0 0 100 100" fill="none" xmlns="http://www.w3.org/2000/svg">
<path d="M18.9267 76.9309C17.7823 78.0753 17.7823 79.9293 18.9267 81.0737C24.1314 86.2784 30.5737 90.0329 37.5851 92.0966C37.8758 92.6055 38.1245 93.1312 38.4533 93.6248C41.0344 97.4959 45.3488 99.9999 50.0004 99.9999C54.6521 99.9999 58.9665 97.4959 61.5475 93.6248C67.0598 85.3522 67.2673 74.8046 62.3013 66.3047C58.8635 68.9055 54.633 70.5077 50.0004 70.5077C45.3679 70.5077 41.1374 68.9055 37.6996 66.3047C36.6665 68.0739 35.9112 69.9439 35.3268 71.852C33.9161 70.9022 32.5703 69.8577 31.3549 68.6423C30.2105 67.5033 28.3543 67.501 27.2091 68.6454C26.0678 69.7928 26.0678 71.646 27.2122 72.7912C29.3004 74.874 31.6922 76.5586 34.2373 77.9937C34.1107 80.3016 34.293 82.6087 34.7905 84.8769C30.4509 82.9795 26.4546 80.3138 23.0694 76.9309C21.925 75.7865 20.0711 75.7865 18.9267 76.9309Z" fill="url(#paint0_linear)"/>
<path d="M50 64.6484C58.0765 64.6484 64.6484 58.0765 64.6484 50C64.6484 41.9235 58.0765 35.3516 50 35.3516C41.9235 35.3516 35.3516 41.9235 35.3516 50C35.3516 58.0765 41.9235 64.6484 50 64.6484ZM50 47.0703C51.6182 47.0703 52.9297 48.3818 52.9297 50C52.9297 51.6182 51.6182 52.9297 50 52.9297C48.3818 52.9297 47.0703 51.6182 47.0703 50C47.0703 48.3818 48.3818 47.0703 50 47.0703Z" fill="url(#paint1_linear)"/>
<path d="M66.3037 37.6997C68.9053 41.1368 70.5075 45.368 70.5075 50.0006C70.5075 54.6332 68.9053 58.8636 66.3037 62.3015C68.0707 63.3337 69.9315 64.1119 71.8327 64.7055C70.8882 66.1047 69.8483 67.4398 68.6421 68.6461C67.5008 69.7935 67.5008 71.6467 68.6452 72.7919C69.7926 73.9332 71.6473 73.9317 72.791 72.7888C74.8616 70.7129 76.537 68.3355 77.9675 65.8079C78.4116 65.8323 78.8518 65.8995 79.2966 65.8995C81.1703 65.8995 83.0334 65.6263 84.8737 65.2166C82.9762 69.554 80.312 73.5479 76.9307 76.9316C75.7863 78.076 75.7863 79.9299 76.9307 81.0743C78.0743 82.2188 79.929 82.2188 81.0735 81.0743C86.2798 75.8673 90.0349 69.4227 92.0987 62.409C92.606 62.1176 93.3278 61.8757 93.8199 61.5477C97.691 58.9666 99.9997 54.6522 99.9997 50.0006C99.9997 45.3489 97.691 41.0345 93.8199 38.4535C85.5473 32.9382 74.8044 32.7307 66.3037 37.6997Z" fill="url(#paint2_linear)"/>
<path d="M50.0003 29.4922C54.6328 29.4922 58.8633 31.0944 62.3011 33.6952C63.3341 31.926 64.0895 30.056 64.6739 28.1479C66.0845 29.0977 67.4304 30.1422 68.6457 31.3576C69.7932 32.4989 71.6479 32.4982 72.7915 31.3545C73.9329 30.2071 73.9329 28.3539 72.7885 27.2087C70.7003 25.1259 68.3085 23.4413 65.7633 22.0062C65.89 19.6983 65.7076 17.3912 65.2102 15.123C69.5498 17.0197 73.5461 19.6861 76.9313 23.069C78.0757 24.2134 79.9296 24.2134 81.074 23.069C82.2184 21.9246 82.2184 20.0706 81.074 18.9262C75.8692 13.7215 69.427 9.96704 62.4156 7.90329C62.1249 7.39441 61.8769 6.67343 61.5473 6.17981C58.9663 2.30865 54.6519 0 50.0003 0C45.3486 0 41.0342 2.30865 38.4532 6.17981C32.9409 14.4524 32.7334 25.1953 37.6994 33.6952C41.1372 31.0944 45.3677 29.4922 50.0003 29.4922Z" fill="url(#paint3_linear)"/>
<path d="M6.37512 61.5456C10.7269 64.447 15.7166 65.8974 20.7031 65.8974C25.1961 65.8974 29.6669 64.6545 33.696 62.2993C31.0944 58.8615 29.4922 54.631 29.4922 49.9985C29.4922 45.3659 31.0944 41.1346 33.696 37.6976C31.9267 36.6631 30.056 35.9077 28.1487 35.3233C29.0977 33.9134 30.143 32.5676 31.3576 31.353C32.4989 30.2055 32.4989 28.3524 31.3545 27.2072C30.2101 26.0689 28.3531 26.0658 27.2087 27.2102C25.1266 29.2976 23.4421 31.6887 22.007 34.2331C19.6991 34.1064 17.3927 34.2888 15.1237 34.787C17.0204 30.4474 19.6869 26.4519 23.069 23.0675C24.2134 21.9231 24.2134 20.0691 23.069 18.9247C21.9246 17.7803 20.0706 17.7803 18.9262 18.9247C13.7215 24.1295 9.9678 30.5717 7.90329 37.5824C7.39441 37.8738 6.86874 38.1218 6.37512 38.4514C2.50397 41.0324 0 45.3468 0 49.9985C0 54.6501 2.50397 58.9645 6.37512 61.5456Z" fill="url(#paint4_linear)"/>
<defs>
<linearGradient id="paint0_linear" x1="65.862" y1="83.1523" x2="18.0684" y2="83.1523" gradientUnits="userSpaceOnUse">
<stop stop-color="#159957"/>
<stop offset="0.989867" stop-color="#155799"/>
</linearGradient>
<linearGradient id="paint1_linear" x1="64.6484" y1="50" x2="35.3516" y2="50" gradientUnits="userSpaceOnUse">
<stop stop-color="#159957"/>
<stop offset="0.989867" stop-color="#155799"/>
</linearGradient>
<linearGradient id="paint2_linear" x1="99.9997" y1="58.0347" x2="66.3037" y2="58.0347" gradientUnits="userSpaceOnUse">
<stop stop-color="#159957"/>
<stop offset="0.989867" stop-color="#155799"/>
</linearGradient>
<linearGradient id="paint3_linear" x1="81.9323" y1="16.8476" x2="34.1387" y2="16.8476" gradientUnits="userSpaceOnUse">
<stop stop-color="#159957"/>
<stop offset="0.989867" stop-color="#155799"/>
</linearGradient>
<linearGradient id="paint4_linear" x1="33.696" y1="41.9819" x2="-8.78691e-07" y2="41.9819" gradientUnits="userSpaceOnUse">
<stop stop-color="#159957"/>
<stop offset="0.989867" stop-color="#155799"/>
</linearGradient>
</defs>
</svg>
