<svg width="100" height="73" viewBox="0 0 100 73" fill="none" xmlns="http://www.w3.org/2000/svg">
<path d="M85.3646 0.858105C84.2206 -0.286035 82.3655 -0.286035 81.2214 0.858105C80.0772 2.00225 80.0772 3.85713 81.2214 5.00127C89.5526 13.3323 94.1407 24.4171 94.1407 36.2134C94.1407 48.0097 89.5526 59.0944 81.2214 67.4255C80.0772 68.5694 80.0772 70.4245 81.2214 71.5687C82.3675 72.7148 84.2224 72.7108 85.3646 71.5687C94.8024 62.131 100 49.5749 100 36.2134C100 22.8519 94.8024 10.2958 85.3646 0.858105Z" fill="url(#paint0_linear)"/>
<path d="M76.4935 9.72905C75.3493 8.58511 73.4942 8.58511 72.3503 9.72905C71.2063 10.8732 71.2063 12.7281 72.3503 13.8722C78.3138 19.8353 81.5981 27.7697 81.5981 36.2134C81.5981 44.6572 78.314 52.5914 72.3503 58.5546C71.2062 59.6988 71.2062 61.5537 72.3503 62.6978C73.494 63.8416 75.3489 63.8421 76.4935 62.6978C83.5638 55.6279 87.4575 46.2222 87.4575 36.2132C87.4575 26.2042 83.5636 16.7988 76.4935 9.72905Z" fill="url(#paint1_linear)"/>
<path d="M67.6165 18.608C66.4724 17.464 64.6173 17.464 63.4733 18.608C62.3292 19.7521 62.3294 21.6072 63.4733 22.7511C67.0671 26.3445 69.0462 31.1261 69.0462 36.2148C69.0462 41.3035 67.0671 46.0851 63.4733 49.6785C62.3292 50.8224 62.3292 52.6775 63.4733 53.8216C64.6173 54.9656 66.4722 54.966 67.6165 53.8216C72.3169 49.1214 74.9056 42.8685 74.9056 36.2146C74.9056 29.5607 72.3169 23.3082 67.6165 18.608Z" fill="url(#paint2_linear)"/>
<path d="M5.85938 36.2133C5.85938 24.417 10.4475 13.3323 18.7787 5.0012C19.9229 3.85725 19.9229 2.00217 18.7787 0.858032C17.6348 -0.285913 15.7799 -0.286108 14.6355 0.858032C5.19766 10.2957 0 22.8518 0 36.2133C0 49.5748 5.19766 62.1309 14.6355 71.5686C15.7793 72.7125 17.6346 72.7129 18.7787 71.5686C19.9229 70.4244 19.9229 68.5696 18.7787 67.4254C10.4475 59.0944 5.85938 48.0096 5.85938 36.2133Z" fill="url(#paint3_linear)"/>
<path d="M18.4023 36.2135C18.4023 27.7698 21.6865 19.8356 27.6502 13.8723C28.7943 12.7282 28.7943 10.8733 27.6502 9.72913C26.5062 8.58499 24.6512 8.58518 23.507 9.72913C16.4367 16.7989 12.543 26.2047 12.543 36.2135C12.543 46.2223 16.4367 55.6282 23.507 62.6981C24.6527 63.8436 26.5076 63.8407 27.6502 62.6981C28.7941 61.5539 28.7941 59.6991 27.6502 58.5549C21.6865 52.5916 18.4023 44.6573 18.4023 36.2135Z" fill="url(#paint4_linear)"/>
<path d="M36.5279 18.6081C35.384 17.464 33.5289 17.464 32.3848 18.6081C27.6844 23.3083 25.0957 29.5612 25.0957 36.2151C25.0957 42.869 27.6844 49.122 32.3848 53.8222C33.5305 54.9677 35.3854 54.9647 36.5279 53.8222C37.6721 52.678 37.6719 50.823 36.5279 49.679C32.9342 46.0856 30.9551 41.304 30.9551 36.2153C30.9551 31.1267 32.9342 26.345 36.5279 22.7517C37.6719 21.6073 37.6719 19.7522 36.5279 18.6081Z" fill="url(#paint5_linear)"/>
<path d="M50 23.8711C43.1936 23.8711 37.6562 29.4086 37.6562 36.2148C37.6562 43.0211 43.1937 48.5586 50 48.5586C56.8063 48.5586 62.3438 43.0211 62.3438 36.2148C62.3438 29.4086 56.8064 23.8711 50 23.8711Z" fill="url(#paint6_linear)"/>
<defs>
<linearGradient id="paint0_linear" x1="100" y1="36.2134" x2="80.3633" y2="36.2134" gradientUnits="userSpaceOnUse">
<stop stop-color="#159957"/>
<stop offset="0.989867" stop-color="#155799"/>
</linearGradient>
<linearGradient id="paint1_linear" x1="87.4575" y1="36.2135" x2="71.4922" y2="36.2135" gradientUnits="userSpaceOnUse">
<stop stop-color="#159957"/>
<stop offset="0.989867" stop-color="#155799"/>
</linearGradient>
<linearGradient id="paint2_linear" x1="74.9056" y1="36.2149" x2="62.6152" y2="36.2149" gradientUnits="userSpaceOnUse">
<stop stop-color="#159957"/>
<stop offset="0.989867" stop-color="#155799"/>
</linearGradient>
<linearGradient id="paint3_linear" x1="19.6368" y1="36.2133" x2="-5.1207e-07" y2="36.2133" gradientUnits="userSpaceOnUse">
<stop stop-color="#159957"/>
<stop offset="0.989867" stop-color="#155799"/>
</linearGradient>
<linearGradient id="paint4_linear" x1="28.5083" y1="36.2136" x2="12.543" y2="36.2136" gradientUnits="userSpaceOnUse">
<stop stop-color="#159957"/>
<stop offset="0.989867" stop-color="#155799"/>
</linearGradient>
<linearGradient id="paint5_linear" x1="37.386" y1="36.2151" x2="25.0957" y2="36.2151" gradientUnits="userSpaceOnUse">
<stop stop-color="#159957"/>
<stop offset="0.989867" stop-color="#155799"/>
</linearGradient>
<linearGradient id="paint6_linear" x1="62.3438" y1="36.2148" x2="37.6562" y2="36.2148" gradientUnits="userSpaceOnUse">
<stop stop-color="#159957"/>
<stop offset="0.989867" stop-color="#155799"/>
</linearGradient>
</defs>
</svg>
